<?xml version="1.0" standalone="no"?>
<!DOCTYPE svg PUBLIC "-//W3C//DTD SVG 20010904//EN"
 "http://www.w3.org/TR/2001/REC-SVG-20010904/DTD/svg10.dtd">
<svg version="1.0" xmlns="http://www.w3.org/2000/svg"
 width="1326.000000pt" height="214.000000pt" viewBox="0 0 1326.000000 214.000000"
 preserveAspectRatio="xMidYMid meet">
<metadata>
Created by potrace 1.16, written by Peter Selinger 2001-2019
</metadata>
<g transform="translate(0.000000,214.000000) scale(0.100000,-0.100000)"
fill="#FFF" stroke="none">
<path d="M1020 1906 c0 -7 7 -19 15 -26 13 -11 15 -116 15 -836 l0 -824 110 0
110 0 1 453 0 452 100 -440 c54 -242 101 -446 104 -453 3 -9 37 -12 137 -10
l133 3 3 843 2 842 -110 0 -110 0 -2 -452 -3 -452 -101 455 -100 454 -152 3
c-125 2 -152 0 -152 -12z"/>
<path d="M3338 1897 l22 -23 0 -822 0 -822 110 0 110 0 0 334 0 335 -32 25
-33 26 65 -2 65 -3 94 -357 94 -358 114 0 c62 0 113 2 113 5 0 2 -40 158 -90
344 -49 187 -90 347 -90 356 0 10 10 15 33 15 45 0 106 38 128 80 18 32 19 64
19 403 0 409 1 402 -67 454 l-36 28 -321 3 -320 3 22 -24z m502 -467 l0 -230
-130 0 -130 0 0 209 0 209 -27 21 -28 20 158 1 157 0 0 -230z"/>
<path d="M5680 1911 c0 -5 7 -14 15 -21 13 -11 15 -120 17 -839 l3 -826 113
-3 112 -3 1 448 1 448 98 -439 c54 -241 102 -442 107 -447 5 -5 68 -8 139 -7
l129 3 3 843 2 842 -110 0 -110 0 0 -452 c0 -248 -2 -449 -4 -447 -3 2 -48
198 -101 434 -53 237 -99 440 -102 453 -5 22 -8 22 -159 22 -85 0 -154 -4
-154 -9z"/>
<path d="M7020 1911 c-50 -10 -88 -38 -111 -82 -18 -37 -19 -65 -19 -756 0
-678 1 -720 19 -759 12 -25 33 -50 57 -65 38 -23 46 -24 277 -27 l237 -4 0
131 0 131 -185 0 -185 0 0 568 0 567 -33 23 -32 22 218 0 217 0 0 130 0 130
-212 -1 c-117 -1 -229 -4 -248 -8z"/>
<path d="M8364 1895 c14 -22 16 -106 16 -845 l0 -820 115 0 115 0 0 332 0 332
-32 27 -33 28 61 1 61 0 63 -237 c34 -131 76 -292 94 -358 l31 -120 113 -3
c77 -2 112 1 112 8 0 7 -40 165 -90 352 -49 187 -90 343 -90 348 0 4 21 10 46
13 54 6 91 30 119 78 19 32 20 52 20 404 0 368 0 370 -23 407 -13 21 -40 45
-66 57 -40 20 -59 21 -345 21 l-303 0 16 -25z m504 -462 l-3 -228 -127 -3
-128 -3 0 205 0 204 -31 26 -31 26 161 0 161 0 -2 -227z"/>
<path d="M11290 1911 c0 -5 7 -14 15 -21 13 -11 15 -116 15 -836 l0 -824 110
0 110 0 0 334 0 335 -32 25 -33 26 163 0 162 0 0 -360 0 -360 110 0 110 0 0
845 0 845 -110 0 -110 0 0 -360 0 -360 -130 0 -130 0 0 360 0 360 -125 0 c-69
0 -125 -4 -125 -9z"/>
<path d="M355 1883 c15 -26 10 -73 -80 -808 -52 -429 -98 -797 -101 -817 l-6
-38 111 0 c61 0 111 1 112 3 0 1 6 47 13 102 l13 100 -25 28 -26 27 174 -2
175 -3 15 -125 15 -125 113 -3 113 -3 -6 33 c-3 18 -48 384 -100 813 -52 429
-97 795 -100 813 l-6 32 -210 0 -210 0 16 -27z m269 -673 c26 -217 50 -414 53
-437 l6 -43 -112 0 c-99 0 -111 2 -111 18 -1 45 105 871 111 864 3 -4 27 -185
53 -402z"/>
<path d="M1859 1884 c21 -27 21 -32 21 -845 l0 -819 283 0 c273 0 284 1 327
23 30 14 53 36 67 62 l23 40 -3 732 c-2 725 -2 732 -23 760 -11 15 -36 38 -54
51 -32 22 -38 22 -347 22 l-314 0 20 -26z m501 -814 l0 -590 -130 0 -130 0 0
563 0 562 -32 27 -33 27 163 1 162 0 0 -590z"/>
<path d="M2659 1884 c21 -27 21 -32 21 -845 l0 -819 295 0 295 0 0 130 0 130
-185 0 -185 0 0 208 0 208 -32 19 -33 20 163 3 162 2 0 130 0 130 -130 0 -130
0 0 203 0 202 -32 27 -33 27 218 1 217 0 0 125 0 125 -316 0 -315 0 20 -26z"/>
<path d="M4220 1892 c-19 -9 -45 -32 -57 -51 -22 -33 -23 -41 -23 -278 l0
-244 240 -295 240 -295 0 -125 0 -124 -130 0 -130 0 0 130 0 130 -110 0 -110
0 0 -204 c0 -194 1 -204 23 -236 50 -74 53 -75 308 -78 215 -3 233 -2 272 17
23 12 53 37 67 58 25 36 25 40 28 274 l3 237 -240 296 -241 295 0 103 0 103
-32 27 -33 27 163 1 162 0 0 -130 0 -131 108 3 107 3 3 185 c2 175 1 187 -20
230 -13 25 -38 55 -57 67 -33 22 -42 23 -270 23 -205 0 -241 -2 -271 -18z"/>
<path d="M5002 1893 c-18 -9 -43 -30 -55 -47 l-22 -31 -3 -741 -2 -740 22 -34
c51 -74 53 -75 311 -78 225 -3 233 -2 277 20 33 17 51 35 68 68 l22 44 0 711
0 711 -22 44 c-13 25 -38 55 -57 67 -33 22 -41 23 -270 23 -197 0 -241 -3
-269 -17z m398 -823 l0 -590 -130 0 -130 0 0 562 0 562 -32 27 -33 28 163 1
162 0 0 -590z"/>
<path d="M7680 1903 c0 -3 7 -14 15 -23 13 -15 4 -103 -85 -830 -55 -447 -100
-817 -100 -821 0 -11 220 -12 220 -1 1 4 7 51 14 105 l13 98 -31 24 -31 25
177 0 c206 0 180 20 199 -153 l12 -108 111 3 111 3 -3 25 c-4 41 -191 1572
-197 1618 l-6 42 -210 0 c-115 0 -209 -3 -209 -7z m285 -717 c30 -246 55 -450
55 -452 0 -3 -51 -3 -112 -2 -68 2 -113 7 -112 13 15 133 110 892 112 890 1
-1 27 -204 57 -449z"/>
<path d="M9128 1887 c21 -22 30 -88 122 -842 55 -451 100 -820 100 -822 0 -7
330 -2 330 5 1 4 47 383 103 842 l102 835 -109 3 c-60 1 -110 1 -111 0 -1 -2
-35 -268 -74 -592 -39 -325 -73 -591 -75 -593 -1 -2 -36 265 -76 592 l-73 595
-130 0 -130 0 21 -23z"/>
<path d="M9996 1889 c11 -12 17 -32 16 -52 -1 -18 -45 -380 -97 -805 -52 -425
-95 -781 -95 -792 0 -19 7 -20 109 -20 l108 0 12 88 c15 120 15 123 -16 149
l-28 22 178 1 c135 0 177 -3 177 -12 0 -7 7 -60 15 -118 8 -58 15 -111 15
-117 0 -10 29 -13 110 -13 101 0 110 2 110 19 0 10 -45 384 -100 831 -55 446
-100 818 -100 826 0 12 -37 14 -217 14 l-216 0 19 -21z m274 -684 c27 -231 52
-432 55 -447 l5 -28 -116 0 -116 0 6 38 c6 38 105 841 107 864 2 34 12 -39 59
-427z"/>
<path d="M10674 1888 c14 -20 16 -117 16 -845 l0 -823 298 2 297 3 0 125 0
125 -182 3 -183 2 0 715 0 715 -131 0 -130 0 15 -22z"/>
<path d="M12200 1888 c-18 -13 -43 -36 -54 -51 -21 -28 -21 -33 -21 -772 0
-735 0 -744 21 -772 11 -15 40 -38 64 -51 42 -21 56 -22 260 -22 204 0 218 1
260 23 24 12 53 35 64 50 21 28 21 37 21 772 0 739 0 744 -21 772 -11 15 -36
38 -54 51 -32 21 -41 22 -270 22 -229 0 -238 -1 -270 -22z m400 -818 l0 -590
-130 0 -130 0 0 563 0 562 -32 27 -33 27 163 1 162 0 0 -590z"/>
</g>
<g transform="translate(0.000000,214.000000) scale(0.100000,-0.100000)"
fill="#dc143c" stroke="none">
<path d="M12930 340 l0 -120 110 0 110 0 0 120 0 120 -110 0 -110 0 0 -120z"/>
</g>
</svg>
